<?xml version="1.0" standalone="no"?>
<!DOCTYPE svg PUBLIC "-//W3C//DTD SVG 20010904//EN"
 "http://www.w3.org/TR/2001/REC-SVG-20010904/DTD/svg10.dtd">
<svg version="1.0" xmlns="http://www.w3.org/2000/svg"
 width="348.000000pt" height="207.000000pt" viewBox="0 0 348.000000 207.000000"
 preserveAspectRatio="xMidYMid meet">

<g transform="translate(0.000000,207.000000) scale(0.100000,-0.100000)"
fill="#000000" stroke="none">
<path d="M2196 2058 c3 -4 -5 -8 -18 -8 -13 0 -57 -9 -98 -21 -347 -96 -626
-394 -701 -749 l-18 -85 0 359 -1 359 -72 -6 c-192 -17 -355 -90 -499 -225
-143 -134 -228 -297 -262 -502 -2 -14 -5 76 -6 198 l-1 224 -52 -7 c-180 -24
-338 -134 -412 -288 -59 -121 -70 -239 -35 -369 56 -207 227 -352 452 -383
l47 -6 1 223 0 223 24 -103 c13 -57 40 -135 59 -175 68 -141 194 -279 326
-358 111 -66 288 -119 398 -119 l32 0 1 358 0 357 18 -85 c75 -355 353 -653
700 -749 276 -77 579 -30 813 125 464 308 586 925 275 1389 -93 139 -276 289
-428 351 -78 32 -186 64 -216 64 -13 0 -23 4 -23 8 0 5 -70 8 -154 8 -85 0
-153 -3 -150 -8z"/>
</g>
</svg>
