<?xml version="1.0" standalone="no"?>
<!DOCTYPE svg PUBLIC "-//W3C//DTD SVG 20010904//EN"
 "http://www.w3.org/TR/2001/REC-SVG-20010904/DTD/svg10.dtd">
<svg version="1.0" xmlns="http://www.w3.org/2000/svg"
 width="241.000000pt" height="155.000000pt" viewBox="0 0 241.000000 155.000000"
 preserveAspectRatio="xMidYMid meet">

<g transform="translate(0.000000,155.000000) scale(0.100000,-0.100000)"
fill="#000000" stroke="none">
<path d="M1490 1415 c-228 -43 -430 -236 -482 -462 -12 -55 -13 -47 -16 161
l-2 219 -56 -7 c-209 -24 -406 -199 -442 -391 -5 -31 -8 -12 -12 80 l-5 120
-40 -3 c-92 -8 -192 -75 -238 -160 -110 -201 13 -448 237 -478 l46 -7 1 119
c1 114 1 117 14 74 37 -132 114 -235 226 -305 53 -34 179 -75 228 -75 l41 0 1
218 0 217 25 -85 c34 -115 74 -181 163 -271 220 -221 557 -239 812 -43 176
135 262 380 214 609 -31 145 -134 296 -262 381 -125 83 -302 118 -453 89z"/>
</g>
</svg>
